<svg id="Layer_1" data-name="Layer 1" xmlns="http://www.w3.org/2000/svg" width="292" height="408" viewBox="0 0 292 408"><title>2Artboard 1</title><path d="M46.2,57.3c-2.7,4.2-14,21.5-25,25.1A2.2,2.2,0,0,0,20,85.7c7.2,10.9,25.5,31.9,37.5,37.2a2.2,2.2,0,0,0,3-2.1c-.1-3.4-.5-8-.7-13a2.2,2.2,0,0,1,4.3-.3c.8,9.1,1.7,16.9,2,19.4a2.2,2.2,0,0,0,.7,1.4l13.4,12.2a2.2,2.2,0,0,1,.7,1.6c0,7.7-.5,60-17.7,85.1a2.2,2.2,0,0,0-.4,1.4c.5,6.2,4.2,48.6,17.8,70.7a2.2,2.2,0,0,1,.3,1.2c0,24.9-1.8,58.8-13.2,77.3a2.2,2.2,0,0,0,1.8,3.3H86a2.2,2.2,0,0,0,1.9-1.1c3-5,15-27.2,15.7-54.4a2.2,2.2,0,0,1,4-1.1c20.2,31,26.1,36.1,26.5,36.4h.1L156,380.4a2.2,2.2,0,0,0,1.4.6h96.1a2.2,2.2,0,0,0,2.1-1.7c2.4-11.2,13.7-75.4-36.2-114.1s-51.8-57-51.6-59.4a2.2,2.2,0,0,0,0-.6c-.8-3.7-8.1-36.2-16.3-39.4a2.3,2.3,0,0,1-1-.7c-7.6-9.7-13.6-25.6-14.9-29.2a2.2,2.2,0,0,1,0-1.4c1.3-3.8,7.3-22.1,8.5-40.2a2.2,2.2,0,0,1,4.3-.1c.8,7.7.1,15.6-2,24.5a2.2,2.2,0,0,0,3.5,2.1c22.9-19.6,28.2-31.5,29.2-34.3a2.2,2.2,0,0,0,.1-1.3l-4.9-19.1a2.2,2.2,0,0,0-1.4-1.5L138.9,53.4l-.8-.5c-2.6-2.4-20.1-17.6-39.4-17.2-21,.5-35.2,13.3-37.9,16.7s-10,3.7-12.9,3.9A2.2,2.2,0,0,0,46.2,57.3Z" fill="#d3f0e3"/></svg>