<svg id="Layer_1" data-name="Layer 1" xmlns="http://www.w3.org/2000/svg" width="256" height="256" viewBox="0 0 256 256"><title>logo-fill</title><path d="M243.5,201.9c-28.8,29.9-57.9,29.4-72.9,26.3,1.2-16.5-.9-45.4-25.9-64.8C110.5,137,98.6,96.5,98.4,96.3c-3.6-4.6-6.7-11.3-8.5-15.7a12.5,12.5,0,0,1-.4-8.3,112.2,112.2,0,0,0,4.6-23.5,1.5,1.5,0,0,1,2.9-.1,49.8,49.8,0,0,1-1.3,16.4,1.5,1.5,0,0,0,2.4,1.4c15.3-13.1,18.9-21.1,19.6-23a1.5,1.5,0,0,0,0-.9l-3.3-12.8a1.5,1.5,0,0,0-1-1L90.7,21.4,90,21c-6-7.6-12.8-7.8-25.7-7.6s-19.8,3.8-21.6,6.1-11.2,3.7-13.1,3.8a1.5,1.5,0,0,0-1.1.7c-1.8,2.8-9.4,14.4-16.8,16.8a1.5,1.5,0,0,0-.8,2.2C15.7,50.4,28,64.5,36.1,68a1.5,1.5,0,0,0,2-1.4c-.1-2.3-.3-5.4-.4-8.7a1.5,1.5,0,0,1,2.9-.2c.3,2.7.5,5.3.7,7.4a16.1,16.1,0,0,0,5.1,10.2l4.9,4.5a1.5,1.5,0,0,1,.5,1.1c0,4.6-.2,32.4-8.3,50.5A34.1,34.1,0,0,0,40.9,150c1.5,10.7,4.6,26.5,10.7,36.3a1.5,1.5,0,0,1,.2.8c0,16.7-1.2,39.4-8.8,51.9a1.5,1.5,0,0,0,1.2,2.2H55.1a1.5,1.5,0,0,0,1.3-.7c2-3.4,10.1-18.2,10.5-36.5a1.5,1.5,0,0,1,2.7-.8l6.2,9.4-5.2,26.9a2.4,2.4,0,0,0,2.4,2.9h7.6a2.4,2.4,0,0,0,2.3-1.6l4.7-13,14.6,13.1a1.5,1.5,0,0,0,1,.4h64.4a1.5,1.5,0,0,0,.9-.3c33.1,6.8,62.6-15.2,76.5-37.8A.9.9,0,0,0,243.5,201.9Z" fill="#336d51"/></svg>